<?xml version="1.0" encoding="utf-8"?>
<!-- Generator: Adobe Illustrator 27.7.0, SVG Export Plug-In . SVG Version: 6.00 Build 0)  -->
<svg version="1.1" id="Navbar" xmlns="http://www.w3.org/2000/svg" xmlns:xlink="http://www.w3.org/1999/xlink" x="0px" y="0px"
	 viewBox="0 0 1080 300" style="enable-background:new 0 0 1080 300;" xml:space="preserve">
<style type="text/css">
	.st0{fill:#FFFFFF;}
	.st1{fill:url(#background_00000060004682657280078190000014427543363709291913_);}
	.st2{fill:#231F20;}
</style>
<path class="st0" d="M390.6,73.7l-9.9,12.9h-25.1c-17.4,0-30.1-11-30.1-25.5s12.8-24.5,30.1-24.5h35l-9.9,13h-25.1
	c-8.4,0-14.7,5-14.7,12.2s6.2,12,14.7,12L390.6,73.7z"/>
<path class="st0" d="M467.6,36.6L438,70v16.5h-15.6V70l-30.5-33.4h19.9l12,13.9c1.6,1.8,5.8,6.3,6.8,7.8c1-1.4,2.7-3.6,6.3-7.9
	l11.4-13.8H467.6z"/>
<path class="st0" d="M537.2,72c0,8.3-4.6,14.6-20.3,14.6h-44V56.1h44.3c2.2,0,4.3-0.8,4.3-3.4s-2.2-3.2-4.3-3.2h-44.2l10.5-13h33.1
	c12,0,19.7,4.6,19.7,13.8c0,5.9-3.4,9.2-6.8,10.5C533.6,62.1,537.2,66,537.2,72z M488.4,66.8v6.9h28.5c3.4,0,4.8-1.2,4.8-3.5
	c0-2.2-1.4-3.4-4.8-3.4H488.4z"/>
<path class="st0" d="M603,73.7l-9.9,12.9h-48.1v-50h57.9l-10,13h-32.4v6h39.6l-8.9,11.4h-30.7v6.8L603,73.7z"/>
<path class="st0" d="M679.3,86.6h-20.7l-11.1-13.2h-23.8v13.2h-15.5V61h43.5c4.8,0,8.5-2.2,8.5-5.6c0-3.9-3.2-5.8-8.5-5.8h-43.5
	l10.1-13h32.1c11.4,0,25.7,3.6,25.7,17.9c0.2,7.8-5.4,14.6-13.1,15.8c2.5,2,4.8,4.2,7,6.6L679.3,86.6z"/>
<path class="st0" d="M759.8,56.5c12.2,0,18.8,4.6,18.8,13.7c0,10.2-6.2,16.4-21.5,16.4h-46.6l9.9-12.9h37.8c3.7,0,5.3-1,5.3-3.7
	s-1.6-3.6-5.3-3.6h-27.2c-12.9,0-18.8-5.8-18.8-14.3c0-9.4,6.3-15.6,21.5-15.6h43.4l-9.9,13h-34.7c-3.6,0-5.3,0.9-5.3,3.4
	s1.7,3.5,5.3,3.5L759.8,56.5z"/>
<path class="st0" d="M826.8,73.8h-26.2v12.8h-15.4V61h43c4.8,0,7.5-2.3,7.5-5.8s-2.8-5.7-7.5-5.7h-43l10.2-13h31.4
	c15.5,0,24.5,7.6,24.5,18.8S842.4,73.8,826.8,73.8z"/>
<path class="st0" d="M868.6,86.6l9.4-12.9h12.5c3,0,6.5,0,8.9,0.2c-1.3-1.8-3.4-4.8-5.1-7.2l-9-13.2l-23.5,33.2h-18.3l32.1-45.2
	c2.1-2.9,5.2-5.6,10-5.6c4.6,0,7.7,2.5,9.9,5.6l31.2,45.2H868.6z"/>
<path class="st0" d="M988.2,73.7l-9.9,12.9h-25.1c-17.3,0-30.1-11-30.1-25.5s12.8-24.5,30.1-24.5h35.1l-9.9,13h-25.1
	c-8.4,0-14.7,5-14.7,12.2s6.2,12,14.7,12L988.2,73.7z"/>
<path class="st0" d="M1051.7,73.7l-9.9,12.9h-48.1v-50h57.9l-10,13h-32.4v6h39.6l-8.9,11.4h-30.7v6.8L1051.7,73.7z"/>
<path class="st0" d="M360.5,176.3H327v-31.2h15.5v18.3h18c8.6,0,14.8-4.8,14.8-12c0-7-6.4-12.2-14.8-12.2H327l9.9-13h23.6
	c17.5,0,30.1,10.1,30.1,24.5S377.8,176.3,360.5,176.3z"/>
<path class="st0" d="M414.2,176.3h-15.5v-50h15.5L414.2,176.3z"/>
<path class="st0" d="M454.7,145h32v31.2h-34.3c-17.4,0-30.1-11-30.1-25.5c0-14.6,12.8-24.5,30.1-24.5h35.8l-10,13h-25.8
	c-8.4,0-14.7,5.1-14.7,12.2c0,7.3,6.1,12,14.7,12h18.9v-7.3h-25.9L454.7,145z"/>
<path class="st0" d="M511.3,176.3h-15.5v-50h15.5V176.3z"/>
<path class="st0" d="M583,126.3l-10,13h-17.9v37h-15.5v-37h-23.5l10-13H583z"/>
<path class="st0" d="M593.2,176.3l9.3-12.9h12.6c3,0,6.5,0,8.9,0.1c-1.3-1.8-3.4-4.9-5.1-7.2l-9-13.2l-23.5,33.2h-18.3l32.1-45.2
	c2.1-2.9,5.2-5.6,10-5.6c4.6,0,7.7,2.5,9.9,5.6l31.2,45.2H593.2z"/>
<path class="st0" d="M711,163.4l-10,12.9h-44.2v-50h15.5v37.2L711,163.4z"/>
<linearGradient id="background_00000072263883107176709770000006370587068229551274_" gradientUnits="userSpaceOnUse" x1="4.3483" y1="297.5683" x2="293.4783" y2="7.4483" gradientTransform="matrix(1 0 0 -1 0 302)">
	<stop  offset="0.14" style="stop-color:#FFCA06"/>
	<stop  offset="0.87" style="stop-color:#F47A20"/>
</linearGradient>
<circle id="background" style="fill:url(#background_00000072263883107176709770000006370587068229551274_);" cx="149.4" cy="149.9" r="149.6"/>
<path class="st0" d="M227.4,134.2v64.2c0,16.1-12.7,28.4-30,28.4c-17.7,0-29.5-11.9-29.5-28.4V164H213v-29.8h-76.9v64.2
	c0,1.4,0.1,2.8,0.2,4.2L83,202.6c1.3-14.2,0.6-28.6-2.1-42.6c-3.5-18.3-7.7-40.4-25.8-52.7c-5-3.3-10.6-5.7-16.4-7
	c0.1,28.8,0.2,57.7,0.3,86.6c0.6,13.5,4.9,26.6,12.5,37.8c4,5.9,8.8,12.6,19.2,18.6c7.9,4.5,22.8,6,26.2,6
	c16.6,0.1,40.7,0.9,71.8,0.2c9.4,4.4,19.8,6.7,30.2,6.6c35.6,0,60.5-24.2,60.5-57.8v-45.3L227.4,134.2z"/>
<path class="st0" d="M157.3,79.3c3.8-6.7,5.6-14.4,5.2-22.1l-64.6,1.3c-11.7,1.6-22.4,7.2-30.3,16c-6.4,7.3-10.4,16.2-11.7,25.8
	l65-0.7C122.9,99.6,146.2,98.3,157.3,79.3z"/>
<path class="st2" d="M120,192c-1.5,3.3-1.9,7-1.3,10.6c0,0.1,0,0.1,0,0.2l2.3-0.1c0-0.1-0.1-0.3-0.1-0.5c-0.6-3.3-0.1-6.8,1.4-9.8
	c1.9-3.7,5.2-6.5,9.1-8c1.5-0.6,3.1-1,4.7-1.2V181c-1.9,0.1-3.8,0.6-5.6,1.3C125.9,184,122.2,187.5,120,192z"/>
<path class="st2" d="M194.2,180.4c-0.1-0.3-0.4-0.5-0.7-0.6c-0.3-0.1-0.6-0.1-0.9,0.1c-0.3,0.1-0.5,0.4-0.6,0.6
	c-2.2,5.9-6,8.8-11.6,8.8c0.4-1.8,0.7-3.6,0.9-5.5c0-0.2,0-0.5,0.1-0.7c0.1-0.9,0.1-1.9,0.1-2.8v-1.8c0-0.2,0-0.4,0-0.6
	c0-0.4-0.1-0.8-0.1-1.2c-0.1-1-0.2-1.9-0.4-2.9c-0.1-0.2-0.1-0.4-0.1-0.7c-0.1-0.4-0.1-0.8-0.3-1.2c-0.1-0.2-0.1-0.4-0.1-0.5
	c-0.1-0.2-0.1-0.4-0.2-0.6c-0.1-0.4-0.2-0.7-0.3-1.1c-0.1-0.3-0.3-0.6-0.4-0.9c-0.3-0.8-0.7-1.5-1.1-2.2c-0.3-0.5-0.6-1-0.9-1.5
	c-0.2-0.3-0.4-0.6-0.7-0.9c-0.1-0.1-0.2-0.3-0.3-0.4c-2.2-2.7-4.9-5.1-7.9-6.9c-2.8-1.7-5.8-3.2-8.8-4.4c-1.7-0.7-3.6-1.4-5.5-2.1
	l-5.9-2.1c-4-1.3-7.7-3.3-11-5.8c-1.5-1.2-2.7-2.8-3.6-4.5c-0.8-1.8-1.2-3.7-1.1-5.6c0-2,0.4-3.9,1-5.8c0.7-1.8,1.5-3.5,2.6-5
	c1.9-2.7,4.5-4.9,7.4-6.4c2-1.1,4.2-1.8,6.4-2.2c0.4-0.1,0.9-0.2,1.4-0.2h0.5l0.7-0.1c4.1,0,7.3,1.3,9.4,3.8
	c2.9,3.6,3.6,10.2,2.4,17.5h2.2c1.4-8,0.5-14.8-2.9-19c-2.6-3.1-6.3-4.6-11.2-4.6h-0.7c-0.2,0-0.4,0-0.6,0c-0.5,0-1,0-1.5,0.1
	c-2.6,0.2-5.1,0.9-7.4,1.9c-3.5,1.6-6.6,3.9-9,6.8c-1.4,1.8-2.6,3.7-3.5,5.8c-0.9,2.2-1.5,4.6-1.7,7c-0.3,2.6,0.1,5.3,1.1,7.8
	c1,2.5,2.5,4.7,4.5,6.6c3.6,3.2,7.8,5.8,12.4,7.5l2.3,0.9l3.6,1.4c1.8,0.8,3.6,1.5,5.1,2.3c2.7,1.2,5.4,2.6,7.9,4.2
	c2.4,1.4,4.5,3.2,6.3,5.3l0.3,0.3c0.2,0.2,0.3,0.4,0.4,0.5l0.6,1c0.3,0.4,0.6,0.9,0.7,1.4c0.1,0.3,0.3,0.5,0.4,0.8
	c0.7,1.7,1.1,3.5,1.3,5.3c0.1,0.5,0.1,1,0.2,1.5s0,1,0.1,1.5c0,0.8,0,1.6,0,2.4c0,0.2,0,0.5,0,0.7c-0.1,1.8-0.3,3.7-0.6,5.5
	c-1.2-0.2-2.4-0.4-3.6-0.7s-2.4-0.5-3.6-0.8v2.3c1.1,0.3,2.2,0.5,3.3,0.7s2.3,0.5,3.4,0.7c-0.5,1.9-1.2,3.7-2.1,5.4
	c-0.8,1.6-1.7,3.2-2.8,4.7c-0.6,0.8-1.1,1.4-1.5,1.9c0.2,1.3,0.4,2.5,0.8,3.7c0.1,0.4,0.3,0.9,0.4,1.3c1.4-1.3,2.7-2.6,3.9-4.1
	c3-3.7,5.2-7.9,6.6-12.5c6.8,0.4,11.6-3.1,14.4-10.4C194.4,181,194.4,180.7,194.2,180.4z"/>
<path class="st0" d="M329.3,243v-33.6h11.9c11.9,0,17.9,5.5,17.9,16.4c0,5.2-1.6,9.4-4.9,12.5s-7.6,4.7-13,4.7H329.3z M336.9,215.6
	v21.3h3.8c3.3,0,5.9-1,7.7-3s2.8-4.6,2.8-8c0-3.2-0.9-5.7-2.8-7.6s-4.4-2.8-7.8-2.8H336.9z"/>
<path class="st0" d="M385.5,233.1h-15.7c0.2,3.5,2.4,5.2,6.6,5.2c2.6,0,5-0.6,7-1.9v5.3c-2.2,1.2-5.1,1.8-8.6,1.8
	c-3.9,0-6.9-1.1-9-3.2s-3.2-5.1-3.2-9c0-4,1.2-7.1,3.5-9.5s5.2-3.5,8.5-3.5c3.5,0,6.2,1,8.1,3.1s2.9,4.9,2.9,8.5V233.1z
	 M378.6,228.6c0-3.4-1.4-5.2-4.2-5.2c-1.2,0-2.2,0.5-3.1,1.5s-1.4,2.2-1.6,3.7H378.6z"/>
<path class="st0" d="M388.3,242.4v-6c1.2,0.7,2.4,1.3,3.6,1.6s2.4,0.5,3.4,0.5c1.3,0,2.3-0.2,3.1-0.5s1.1-0.9,1.1-1.6
	c0-0.5-0.2-0.9-0.5-1.2s-0.8-0.6-1.3-0.8s-1.1-0.4-1.8-0.6s-1.3-0.4-1.9-0.6c-1-0.4-1.8-0.7-2.5-1.2s-1.3-0.9-1.8-1.4
	s-0.9-1.2-1.1-1.9s-0.4-1.6-0.4-2.6c0-1.3,0.3-2.5,0.9-3.5s1.4-1.8,2.3-2.4s2.1-1.1,3.4-1.4s2.6-0.4,3.9-0.4c1.1,0,2.1,0.1,3.2,0.2
	s2.2,0.4,3.2,0.7v5.7c-0.9-0.5-1.9-1-3-1.2s-2.1-0.4-3.2-0.4c-0.5,0-0.9,0-1.4,0.1s-0.8,0.2-1.1,0.4s-0.6,0.4-0.8,0.6
	s-0.3,0.6-0.3,0.9c0,0.4,0.1,0.8,0.4,1.1s0.6,0.6,1.1,0.8s1,0.4,1.5,0.6s1.1,0.4,1.7,0.6c1,0.3,1.9,0.7,2.7,1.1s1.5,0.9,2.1,1.4
	s1,1.2,1.3,1.9s0.5,1.6,0.5,2.6c0,1.4-0.3,2.6-0.9,3.6s-1.4,1.8-2.5,2.5s-2.2,1.1-3.5,1.4s-2.7,0.4-4.2,0.4
	C393,243.6,390.6,243.2,388.3,242.4z"/>
<path class="st0" d="M414.8,215.2c-1.2,0-2.3-0.4-3.1-1.1s-1.2-1.7-1.2-2.7c0-1.1,0.4-2,1.2-2.7s1.8-1.1,3.1-1.1
	c1.3,0,2.3,0.4,3.1,1.1s1.2,1.6,1.2,2.7c0,1.1-0.4,2-1.2,2.8S416,215.2,414.8,215.2z M418.4,243H411v-24h7.4V243z"/>
<path class="st0" d="M448.2,240.3c0,4.5-1.3,7.9-3.9,10.3s-6.3,3.7-11.2,3.7c-3.2,0-5.8-0.5-7.7-1.4v-6.2c2.5,1.4,5,2.2,7.5,2.2
	c2.5,0,4.4-0.7,5.8-2s2.1-3.1,2.1-5.4v-1.9h-0.1c-1.7,2.7-4.2,4-7.5,4c-3.1,0-5.5-1.1-7.3-3.2s-2.7-5-2.7-8.7c0-4.1,1-7.3,3-9.7
	s4.6-3.6,7.9-3.6c2.9,0,5.1,1.1,6.6,3.4h0.1V219h7.4V240.3z M440.9,231.5v-1.9c0-1.5-0.4-2.8-1.3-3.9s-2.1-1.6-3.5-1.6
	c-1.6,0-2.9,0.6-3.9,1.9s-1.4,3.1-1.4,5.4c0,2,0.4,3.6,1.3,4.7s2.1,1.7,3.7,1.7c1.5,0,2.8-0.6,3.7-1.8S440.9,233.4,440.9,231.5z"/>
<path class="st0" d="M477.6,243h-7.4v-13.3c0-3.7-1.3-5.6-4-5.6c-1.3,0-2.3,0.5-3.2,1.5s-1.2,2.2-1.2,3.8V243h-7.4v-24h7.4v3.8h0.1
	c1.8-2.9,4.3-4.4,7.7-4.4c5.3,0,8,3.3,8,9.9V243z"/>
<path class="st0" d="M505,233.1h-15.7c0.2,3.5,2.4,5.2,6.6,5.2c2.6,0,5-0.6,7-1.9v5.3c-2.2,1.2-5.1,1.8-8.6,1.8
	c-3.9,0-6.9-1.1-9-3.2s-3.2-5.1-3.2-9c0-4,1.2-7.1,3.5-9.5s5.2-3.5,8.5-3.5c3.5,0,6.2,1,8.1,3.1s2.9,4.9,2.9,8.5V233.1z
	 M498.1,228.6c0-3.4-1.4-5.2-4.2-5.2c-1.2,0-2.2,0.5-3.1,1.5s-1.4,2.2-1.6,3.7H498.1z"/>
<path class="st0" d="M532.9,243h-7.4v-3.3h-0.1c-1.7,2.6-4.2,3.9-7.4,3.9c-3,0-5.4-1.1-7.2-3.2s-2.7-5.1-2.7-8.9c0-4,1-7.1,3-9.5
	s4.7-3.6,7.9-3.6c3.1,0,5.2,1.1,6.5,3.3h0.1v-14.3h7.4V243z M525.6,231.3v-1.8c0-1.6-0.5-2.9-1.4-3.9s-2.1-1.5-3.5-1.5
	c-1.6,0-2.9,0.6-3.8,1.9s-1.4,3.1-1.4,5.3c0,2.1,0.4,3.7,1.3,4.9s2.1,1.7,3.7,1.7c1.5,0,2.7-0.6,3.7-1.8S525.6,233.3,525.6,231.3z"
	/>
<path class="st0" d="M583.9,243.5c-0.8,0-1.6-0.1-2.4-0.3s-1.4-0.5-2.1-0.9s-1.3-0.8-1.9-1.3s-1.2-1.1-1.7-1.6
	c-0.6,0.5-1.3,1-2.1,1.5s-1.7,0.9-2.8,1.3s-2.2,0.7-3.4,1s-2.6,0.4-4,0.4c-1.8,0-3.5-0.2-5.1-0.7s-2.9-1.1-4-2s-2-1.9-2.6-3.2
	s-0.9-2.8-0.9-4.5c0-1.3,0.2-2.5,0.7-3.6s1.1-1.9,1.9-2.7s1.6-1.5,2.6-2s2-1,3-1.4c-0.5-0.4-1-0.8-1.5-1.3s-0.9-1-1.3-1.6
	s-0.7-1.2-0.9-1.9s-0.4-1.4-0.4-2.2c0-1.2,0.2-2.3,0.8-3.3s1.2-1.8,2.1-2.4s2-1.2,3.2-1.5s2.6-0.5,4.1-0.5c1.4,0,2.8,0.2,3.9,0.5
	s2.2,0.9,3.1,1.5s1.5,1.4,2,2.3s0.7,1.9,0.7,3c0,1.7-0.5,3.2-1.6,4.5s-2.5,2.3-4.4,3.1c0.8,0.3,1.5,0.7,2.2,1.2s1.4,0.9,2,1.5
	s1.3,1.2,1.9,1.9s1.2,1.5,1.9,2.4c1.3-1.6,2.2-3.3,2.8-5.1s0.8-3.7,0.8-5.7c0-0.6,0-1.2-0.1-1.7s-0.2-1.1-0.3-1.5h6.3
	c0.2,0.5,0.3,1,0.4,1.5s0.1,1,0.1,1.7c0,1.5-0.2,3-0.5,4.4s-0.8,2.8-1.3,4.1s-1.3,2.6-2.1,3.7s-1.7,2.3-2.7,3.3
	c0.8,0.8,1.6,1.4,2.4,1.8s1.6,0.6,2.3,0.6c0.8,0,1.5-0.1,2.3-0.2s1.5-0.4,2-0.7v5.6c-0.9,0.3-1.7,0.6-2.5,0.8
	S584.9,243.5,583.9,243.5z M564.1,237.9c0.9,0,1.8-0.1,2.6-0.3s1.6-0.4,2.3-0.7s1.4-0.6,2-1s1.2-0.8,1.7-1.2
	c-0.8-1.2-1.6-2.3-2.4-3.2s-1.6-1.6-2.3-2.2s-1.5-1.1-2.3-1.6s-1.5-0.8-2.3-1.1c-0.6,0.3-1.3,0.7-1.8,1s-1.1,0.8-1.6,1.3
	s-0.8,1.1-1.1,1.7s-0.4,1.4-0.4,2.2c0,0.8,0.1,1.4,0.4,2s0.6,1.1,1.1,1.6s1.1,0.8,1.8,1S563.2,237.9,564.1,237.9z M568.4,216.7
	c0-0.5-0.1-0.9-0.3-1.2s-0.4-0.7-0.7-0.9s-0.6-0.4-1-0.6s-0.8-0.2-1.2-0.2c-0.5,0-1,0.1-1.4,0.2s-0.8,0.4-1.1,0.6s-0.6,0.6-0.7,0.9
	s-0.3,0.8-0.3,1.2c0,0.9,0.3,1.7,0.8,2.4s1.2,1.3,2,1.8c0.5-0.2,1-0.4,1.5-0.7s0.9-0.5,1.2-0.9s0.6-0.7,0.8-1.2
	S568.4,217.2,568.4,216.7z"/>
<path class="st0" d="M607.1,243v-33.6H619c11.9,0,17.9,5.5,17.9,16.4c0,5.2-1.6,9.4-4.9,12.5s-7.6,4.7-13,4.7H607.1z M614.7,215.6
	v21.3h3.8c3.3,0,5.9-1,7.7-3s2.8-4.6,2.8-8c0-3.2-0.9-5.7-2.8-7.6s-4.4-2.8-7.8-2.8H614.7z"/>
<path class="st0" d="M663.3,233.1h-15.7c0.2,3.5,2.4,5.2,6.6,5.2c2.6,0,5-0.6,7-1.9v5.3c-2.2,1.2-5.1,1.8-8.6,1.8
	c-3.9,0-6.9-1.1-9-3.2s-3.2-5.1-3.2-9c0-4,1.2-7.1,3.5-9.5s5.2-3.5,8.5-3.5c3.5,0,6.2,1,8.1,3.1s2.9,4.9,2.9,8.5V233.1z
	 M656.5,228.6c0-3.4-1.4-5.2-4.2-5.2c-1.2,0-2.2,0.5-3.1,1.5s-1.4,2.2-1.6,3.7H656.5z"/>
<path class="st0" d="M690.6,219l-8.9,24h-8.4l-8.5-24h7.9l4.2,14.8c0.5,1.7,0.7,3.1,0.8,4.3h0.1c0.1-1.1,0.4-2.5,0.9-4.1l4.3-14.9
	H690.6z"/>
<path class="st0" d="M715.3,233.1h-15.7c0.2,3.5,2.4,5.2,6.6,5.2c2.6,0,5-0.6,7-1.9v5.3c-2.2,1.2-5.1,1.8-8.6,1.8
	c-3.9,0-6.9-1.1-9-3.2s-3.2-5.1-3.2-9c0-4,1.2-7.1,3.5-9.5s5.2-3.5,8.5-3.5c3.5,0,6.2,1,8.1,3.1s2.9,4.9,2.9,8.5V233.1z
	 M708.5,228.6c0-3.4-1.4-5.2-4.2-5.2c-1.2,0-2.2,0.5-3.1,1.5s-1.4,2.2-1.6,3.7H708.5z"/>
<path class="st0" d="M727.1,243h-7.4v-35.5h7.4V243z"/>
<path class="st0" d="M744.8,243.6c-4,0-7.1-1.1-9.4-3.4s-3.4-5.3-3.4-9.1c0-4,1.2-7.1,3.6-9.3s5.6-3.4,9.6-3.4c4,0,7.1,1.1,9.4,3.4
	s3.4,5.2,3.4,8.9c0,4-1.2,7.1-3.5,9.4S748.9,243.6,744.8,243.6z M745,224.1c-1.8,0-3.1,0.6-4.1,1.8s-1.5,2.9-1.5,5.1
	c0,4.6,1.9,6.9,5.6,6.9c3.5,0,5.3-2.4,5.3-7.1C750.4,226.3,748.6,224.1,745,224.1z"/>
<path class="st0" d="M770.2,240.2L770.2,240.2l-0.1,13.8h-7.4v-35h7.4v3.6h0.1c1.8-2.8,4.4-4.2,7.7-4.2c3.1,0,5.5,1.1,7.2,3.2
	s2.5,5,2.5,8.7c0,4-1,7.2-3,9.6s-4.6,3.6-7.9,3.6C773.9,243.6,771.7,242.5,770.2,240.2z M770,230.4v1.9c0,1.7,0.4,3,1.3,4.1
	s2,1.6,3.4,1.6c1.7,0,3-0.7,3.9-2s1.4-3.2,1.4-5.5c0-4.2-1.6-6.3-4.9-6.3c-1.5,0-2.8,0.6-3.7,1.7S770,228.5,770,230.4z"/>
<path class="st0" d="M814,233.1h-15.7c0.2,3.5,2.4,5.2,6.6,5.2c2.6,0,5-0.6,7-1.9v5.3c-2.2,1.2-5.1,1.8-8.6,1.8
	c-3.9,0-6.9-1.1-9-3.2s-3.2-5.1-3.2-9c0-4,1.2-7.1,3.5-9.5s5.2-3.5,8.5-3.5c3.5,0,6.2,1,8.1,3.1s2.9,4.9,2.9,8.5V233.1z
	 M807.2,228.6c0-3.4-1.4-5.2-4.2-5.2c-1.2,0-2.2,0.5-3.1,1.5s-1.4,2.2-1.6,3.7H807.2z"/>
<path class="st0" d="M841.9,243h-7.4v-3.3h-0.1c-1.7,2.6-4.2,3.9-7.4,3.9c-3,0-5.4-1.1-7.2-3.2s-2.7-5.1-2.7-8.9c0-4,1-7.1,3-9.5
	s4.7-3.6,7.9-3.6c3.1,0,5.2,1.1,6.5,3.3h0.1v-14.3h7.4V243z M834.7,231.3v-1.8c0-1.6-0.5-2.9-1.4-3.9s-2.1-1.5-3.5-1.5
	c-1.6,0-2.9,0.6-3.8,1.9s-1.4,3.1-1.4,5.3c0,2.1,0.4,3.7,1.3,4.9s2.1,1.7,3.7,1.7c1.5,0,2.7-0.6,3.7-1.8S834.7,233.3,834.7,231.3z"
	/>
<path class="st0" d="M869.8,238.1h-7.8c0.1,1.7,1.2,2.6,3.3,2.6c1.3,0,2.5-0.3,3.5-0.9v2.7c-1.1,0.6-2.6,0.9-4.3,0.9
	c-1.9,0-3.4-0.5-4.5-1.6s-1.6-2.6-1.6-4.5c0-2,0.6-3.6,1.7-4.7s2.6-1.7,4.3-1.7c1.8,0,3.1,0.5,4.1,1.6s1.4,2.4,1.4,4.2V238.1z
	 M866.3,235.8c0-1.7-0.7-2.6-2.1-2.6c-0.6,0-1.1,0.2-1.5,0.7s-0.7,1.1-0.8,1.8H866.3z"/>
<path class="st0" d="M871.2,242.7v-3c0.6,0.4,1.2,0.6,1.8,0.8s1.2,0.3,1.7,0.3c0.7,0,1.2-0.1,1.6-0.3s0.6-0.5,0.6-0.8
	c0-0.2-0.1-0.4-0.3-0.6s-0.4-0.3-0.7-0.4s-0.6-0.2-0.9-0.3s-0.6-0.2-0.9-0.3c-0.5-0.2-0.9-0.4-1.3-0.6s-0.7-0.4-0.9-0.7
	s-0.4-0.6-0.6-0.9s-0.2-0.8-0.2-1.3c0-0.7,0.1-1.2,0.4-1.7s0.7-0.9,1.2-1.2s1-0.5,1.7-0.7s1.3-0.2,2-0.2c0.5,0,1.1,0,1.6,0.1
	s1.1,0.2,1.6,0.4v2.9c-0.5-0.3-1-0.5-1.5-0.6s-1.1-0.2-1.6-0.2c-0.2,0-0.5,0-0.7,0.1s-0.4,0.1-0.6,0.2s-0.3,0.2-0.4,0.3
	s-0.1,0.3-0.1,0.4c0,0.2,0.1,0.4,0.2,0.6s0.3,0.3,0.6,0.4s0.5,0.2,0.8,0.3s0.6,0.2,0.8,0.3c0.5,0.2,0.9,0.4,1.3,0.6s0.7,0.4,1,0.7
	s0.5,0.6,0.7,1s0.2,0.8,0.2,1.3c0,0.7-0.2,1.3-0.5,1.8s-0.7,0.9-1.2,1.2s-1.1,0.5-1.8,0.7s-1.4,0.2-2.1,0.2
	C873.5,243.3,872.3,243.1,871.2,242.7z"/>
<path class="st0" d="M889.8,242.9c-0.5,0.3-1.4,0.4-2.5,0.4c-2.6,0-3.9-1.4-3.9-4.1v-5.5h-1.9V231h1.9v-2.6l3.7-1.1v3.6h2.7v2.7
	h-2.7v4.9c0,1.2,0.5,1.9,1.5,1.9c0.4,0,0.8-0.1,1.2-0.3V242.9z"/>
<path class="st0" d="M893.5,243.3c-0.6,0-1.1-0.2-1.5-0.6s-0.6-0.8-0.6-1.4c0-0.6,0.2-1,0.6-1.4s0.9-0.5,1.6-0.5
	c0.6,0,1.2,0.2,1.6,0.5s0.6,0.8,0.6,1.4c0,0.6-0.2,1-0.6,1.4S894.2,243.3,893.5,243.3z"/>
<path class="st0" d="M901.8,239.9h7.1v3.1h-11.2v-1.3c0-0.9,0.1-1.6,0.4-2.3s0.7-1.3,1.1-1.8s0.9-1,1.4-1.4s1-0.8,1.5-1.1
	c0.5-0.4,0.9-0.7,1.3-1s0.7-0.6,0.9-1s0.4-0.6,0.6-1s0.2-0.7,0.2-1c0-0.7-0.2-1.3-0.6-1.6s-1-0.6-1.9-0.6c-1.4,0-2.8,0.6-4.1,1.7
	v-3.3c1.5-0.9,3.1-1.4,4.9-1.4c0.9,0,1.6,0.1,2.3,0.3s1.2,0.5,1.7,1s0.8,0.9,1.1,1.5s0.4,1.2,0.4,2c0,0.8-0.1,1.5-0.4,2.1
	s-0.6,1.1-0.9,1.6s-0.8,0.9-1.4,1.4s-1.1,0.8-1.6,1.2c-0.4,0.3-0.7,0.5-1.1,0.8s-0.7,0.5-0.9,0.8s-0.5,0.5-0.6,0.7
	S901.8,239.7,901.8,239.9z"/>
<path class="st0" d="M917.4,243.3c-4,0-6-2.8-6-8.4c0-2.9,0.5-5.1,1.6-6.7s2.7-2.3,4.7-2.3c3.9,0,5.9,2.9,5.9,8.6
	c0,2.8-0.5,5-1.6,6.5S919.4,243.3,917.4,243.3z M917.6,228.7c-1.6,0-2.4,2-2.4,6c0,3.8,0.8,5.7,2.4,5.7c1.5,0,2.3-2,2.3-5.9
	S919.1,228.7,917.6,228.7z"/>
<path class="st0" d="M934.2,225.8V243h-3.7v-13c-0.2,0.2-0.4,0.3-0.7,0.5s-0.6,0.3-0.9,0.4s-0.6,0.2-1,0.3s-0.7,0.2-1,0.2v-3.1
	c1-0.3,1.9-0.6,2.7-1.1s1.6-0.9,2.3-1.4H934.2z"/>
<path class="st0" d="M939.2,238.5c0-0.5,0.1-0.9,0.2-1.4s0.3-0.8,0.6-1.2s0.6-0.7,1-1s0.9-0.5,1.4-0.7c-0.9-0.4-1.5-1-2-1.6
	s-0.7-1.4-0.7-2.2c0-0.6,0.1-1.2,0.4-1.8s0.6-1,1.1-1.4s1-0.7,1.7-0.9s1.4-0.3,2.2-0.3c0.8,0,1.5,0.1,2.2,0.3s1.2,0.5,1.7,0.9
	s0.9,0.9,1.1,1.4s0.4,1.1,0.4,1.8c0,0.8-0.2,1.5-0.8,2.2s-1.2,1.2-2.1,1.6c0.5,0.2,1,0.4,1.4,0.7s0.8,0.6,1,1s0.5,0.8,0.6,1.2
	s0.2,0.9,0.2,1.4c0,0.7-0.1,1.4-0.4,2s-0.7,1.1-1.2,1.5s-1.2,0.8-1.9,1s-1.5,0.4-2.4,0.4c-0.9,0-1.7-0.1-2.4-0.3s-1.4-0.6-1.9-1
	s-0.9-0.9-1.2-1.5S939.2,239.2,939.2,238.5z M942.7,238.2c0,0.4,0.1,0.7,0.2,1s0.3,0.6,0.5,0.8s0.5,0.4,0.8,0.5s0.6,0.2,1,0.2
	c0.4,0,0.7-0.1,1-0.2s0.6-0.3,0.8-0.5s0.4-0.5,0.5-0.8s0.2-0.6,0.2-1c0-0.3-0.1-0.7-0.2-1s-0.3-0.6-0.5-0.8s-0.5-0.4-0.8-0.5
	s-0.6-0.2-1-0.2c-0.4,0-0.7,0.1-1,0.2s-0.6,0.3-0.8,0.5s-0.4,0.5-0.5,0.8S942.7,237.8,942.7,238.2z M943.2,230.7
	c0,0.3,0.1,0.6,0.2,0.8s0.2,0.5,0.4,0.7s0.4,0.3,0.6,0.5s0.5,0.2,0.8,0.2c0.3,0,0.5-0.1,0.8-0.2s0.5-0.3,0.6-0.5s0.3-0.4,0.4-0.7
	s0.2-0.5,0.2-0.8c0-0.3-0.1-0.6-0.2-0.8s-0.2-0.5-0.4-0.7s-0.4-0.3-0.6-0.5s-0.5-0.2-0.8-0.2c-0.3,0-0.6,0.1-0.8,0.2
	s-0.5,0.3-0.6,0.5s-0.3,0.4-0.4,0.7S943.2,230.4,943.2,230.7z"/>
</svg>
