<svg id="Navbar" xmlns="http://www.w3.org/2000/svg" xmlns:xlink="http://www.w3.org/1999/xlink" viewBox="0 0 1051.98 299.28"><defs><style>.cls-1{fill:#fff;}.cls-2{fill:url(#linear-gradient);}.cls-3{fill:#231f20;}</style><linearGradient id="linear-gradient" x1="4.62" y1="297.26" x2="293.75" y2="7.14" gradientTransform="matrix(1, 0, 0, -1, 0, 301.38)" gradientUnits="userSpaceOnUse"><stop offset="0.14" stop-color="#ffca06"/><stop offset="0.87" stop-color="#f47a20"/></linearGradient></defs><path class="cls-1" d="M390.89,86.39,381,99.25H355.84c-17.35,0-30.13-11-30.13-25.49s12.78-24.52,30.13-24.52h35.05l-9.94,13H355.84c-8.38,0-14.66,5-14.66,12.18s6.21,12,14.66,12Z"/><path class="cls-1" d="M467.89,49.24,438.27,82.69V99.21h-15.6V82.69l-30.5-33.45h19.88l12,13.91c1.56,1.79,5.75,6.35,6.8,7.85,1-1.42,2.69-3.59,6.28-7.93l11.36-13.83Z"/><path class="cls-1" d="M537.42,84.69c0,8.29-4.56,14.57-20.33,14.57h-44V68.83h44.26c2.24,0,4.33-.82,4.33-3.37s-2.16-3.21-4.33-3.21H473.13l10.47-13h33.11c12,0,19.66,4.64,19.66,13.83,0,5.91-3.36,9.2-6.8,10.47C533.91,74.81,537.42,78.69,537.42,84.69Zm-48.74-5.16V86.4h28.48c3.37,0,4.79-1.19,4.79-3.51s-1.42-3.36-4.79-3.36Z"/><path class="cls-1" d="M603.27,86.39l-9.94,12.86H545.2v-50h57.93l-10,13H560.75v6h39.62l-8.9,11.36H560.75v6.8Z"/><path class="cls-1" d="M679.53,99.25h-20.7L647.69,86H623.92V99.25H608.44V73.69H652c4.79,0,8.52-2.17,8.52-5.61,0-3.89-3.21-5.83-8.52-5.83H608.44l10.1-13h32.14c11.36,0,25.71,3.59,25.71,17.87A15.67,15.67,0,0,1,663.27,83a63.06,63.06,0,0,1,7,6.57Z"/><path class="cls-1" d="M760.05,69.2c12.19,0,18.76,4.56,18.76,13.68,0,10.24-6.2,16.37-21.45,16.37H710.79l9.94-12.86h37.83c3.66,0,5.3-1,5.3-3.66s-1.64-3.59-5.3-3.59H731.35c-12.86,0-18.77-5.75-18.77-14.35,0-9.42,6.28-15.55,21.46-15.55h43.43l-9.94,13H732.84c-3.59,0-5.31.9-5.31,3.44s1.72,3.51,5.31,3.51Z"/><path class="cls-1" d="M827.11,86.47H801V99.25h-15.4V73.69H828.6c4.79,0,7.55-2.32,7.55-5.76s-2.76-5.68-7.55-5.68H785.55l10.24-13h31.39c15.48,0,24.52,7.63,24.52,18.77S842.66,86.47,827.11,86.47Z"/><path class="cls-1" d="M868.9,99.25l9.37-12.86h12.55c3,0,6.51,0,8.9.15-1.35-1.79-3.44-4.85-5.08-7.25l-9-13.23L862.17,99.25H843.86L875.93,54c2.09-2.92,5.16-5.61,10-5.61,4.64,0,7.7,2.47,9.87,5.61l31.25,45.22Z"/><path class="cls-1" d="M988.51,86.39l-9.94,12.86H953.45c-17.34,0-30.12-11-30.12-25.49s12.78-24.52,30.12-24.52h35.06l-9.94,13H953.45c-8.37,0-14.65,5-14.65,12.18s6.21,12,14.65,12Z"/><path class="cls-1" d="M1052,86.39,1042,99.25H993.9v-50h57.93l-10,13h-32.37v6h39.62l-8.9,11.36h-30.72v6.8Z"/><path class="cls-1" d="M360.77,189h-33.5V157.79h15.55v18.32h17.95c8.6,0,14.8-4.79,14.8-12,0-7-6.43-12.18-14.8-12.18h-33.5l9.87-13h23.63c17.49,0,30.12,10.09,30.12,24.52S378.11,189,360.77,189Z"/><path class="cls-1" d="M414.45,189H399V139h15.48Z"/><path class="cls-1" d="M455,157.69h32v31.24H452.65c-17.35,0-30.13-11-30.13-25.49,0-14.65,12.78-24.52,30.13-24.52h35.8l-10,13h-25.8c-8.38,0-14.73,5.08-14.73,12.18,0,7.26,6.13,12,14.73,12h18.91v-7.26H445.69Z"/><path class="cls-1" d="M511.56,189H496.08V139h15.48Z"/><path class="cls-1" d="M583.32,139l-10,13H555.44v37H540V152H516.49l10-13Z"/><path class="cls-1" d="M593.42,189l9.34-12.85h12.56c3,0,6.5,0,8.9.14-1.35-1.79-3.44-4.85-5.09-7.25l-9-13.23L586.66,189H568.37l32.07-45.22c2.1-2.92,5.16-5.61,10-5.61,4.64,0,7.7,2.47,9.87,5.61L651.55,189Z"/><path class="cls-1" d="M711.27,176.11l-10,12.85H657.11V139h15.48v37.16Z"/><circle id="background" class="cls-2" cx="149.64" cy="149.64" r="149.64"/><path class="cls-1" d="M227.66,133.89V198.1c0,16.06-12.72,28.38-30,28.38-17.7,0-29.5-11.89-29.5-28.38V163.69h45.11v-29.8H136.4V198.1c0,1.43.06,2.83.16,4.23l-53.29-.06a153.92,153.92,0,0,0-2.06-42.58c-3.5-18.31-7.72-40.45-25.82-52.7A48,48,0,0,0,39,100q.18,43.28.35,86.56a73,73,0,0,0,12.51,37.84c4,5.86,8.79,12.63,19.22,18.59,7.88,4.48,22.8,6,26.21,6,16.56.13,40.69.87,71.82.24a69.8,69.8,0,0,0,30.18,6.64c35.58,0,60.47-24.22,60.47-57.76V152.81Z"/><path class="cls-1" d="M157.61,79a40.3,40.3,0,0,0,5.21-22.11l-64.61,1.3a49.77,49.77,0,0,0-30.34,16A49.09,49.09,0,0,0,56.16,100l65-.68C123.21,99.31,146.52,98,157.61,79Z"/><path class="cls-3" d="M120.27,191.69a18.69,18.69,0,0,0-1.3,10.57v.21l2.3-.14a3.85,3.85,0,0,0-.11-.49,15.78,15.78,0,0,1,1.45-9.79,17,17,0,0,1,9.08-8,18.29,18.29,0,0,1,4.72-1.2v-2.16a19.69,19.69,0,0,0-5.56,1.26A19.49,19.49,0,0,0,120.27,191.69Z"/><path class="cls-3" d="M194.5,180.11a1.1,1.1,0,0,0-.68-.55,1.14,1.14,0,0,0-.85.06,1.11,1.11,0,0,0-.55.65q-3.24,8.86-11.62,8.78a38.74,38.74,0,0,0,.85-5.46,3.4,3.4,0,0,1,0-.72c.09-.93.13-1.88.13-2.84v-1.77c0-.2,0-.41,0-.61,0-.41-.06-.81-.07-1.2a27.64,27.64,0,0,0-.38-2.86c0-.22-.09-.44-.13-.67a5.31,5.31,0,0,0-.29-1.19,4.56,4.56,0,0,1-.13-.53c-.07-.2-.14-.38-.19-.56a7.12,7.12,0,0,0-.34-1.11c-.15-.32-.28-.63-.4-.93a14.07,14.07,0,0,0-1.09-2.2c-.28-.5-.57-1-.85-1.46-.21-.3-.43-.6-.66-.88-.1-.13-.2-.26-.29-.4a31.71,31.71,0,0,0-7.91-6.92,64.58,64.58,0,0,0-8.84-4.43c-1.73-.73-3.56-1.44-5.49-2.15l-5.92-2.1a36.19,36.19,0,0,1-11-5.81,13.16,13.16,0,0,1-3.56-4.51,11.89,11.89,0,0,1-1.11-5.6,19.6,19.6,0,0,1,1-5.78,22.12,22.12,0,0,1,2.63-5,21.29,21.29,0,0,1,7.37-6.39,20.25,20.25,0,0,1,6.42-2.18,6.92,6.92,0,0,1,1.36-.16h.5l.66-.06q6.21,0,9.45,3.83c2.93,3.64,3.64,10.21,2.4,17.53h2.23c1.38-8,.51-14.81-2.91-19q-3.9-4.64-11.17-4.64h-1.27a8.84,8.84,0,0,0-1.54.08,23,23,0,0,0-7.43,1.91,24.89,24.89,0,0,0-9,6.81,26.5,26.5,0,0,0-3.51,5.76,23.48,23.48,0,0,0-1.72,7,16.79,16.79,0,0,0,1.06,7.75,18.44,18.44,0,0,0,4.51,6.55,41.08,41.08,0,0,0,12.38,7.54l2.28.93,3.55,1.43c1.84.77,3.56,1.53,5.15,2.26a73.62,73.62,0,0,1,7.91,4.17,27.26,27.26,0,0,1,6.34,5.28l.29.34c.16.18.31.35.45.53l.64,1A6.12,6.12,0,0,1,174,171c.12.26.26.53.4.79a21.27,21.27,0,0,1,1.33,5.26c.07.49.13,1,.18,1.48s0,1,.08,1.52v3.15a33.79,33.79,0,0,1-.61,5.5c-1.17-.21-2.38-.44-3.61-.69s-2.45-.54-3.61-.83v2.32c1.07.26,2.18.51,3.31.74s2.28.46,3.38.66a32.92,32.92,0,0,1-2.05,5.43A31.22,31.22,0,0,1,170,201c-.56.79-1.08,1.44-1.49,1.92a23.8,23.8,0,0,0,.79,3.73c.13.44.27.86.41,1.26a36,36,0,0,0,3.88-4.12,38.27,38.27,0,0,0,6.64-12.47q10.26.58,14.38-10.38A1.15,1.15,0,0,0,194.5,180.11Z"/><path class="cls-1" d="M331.46,222.36h14.79a17.77,17.77,0,0,1,7.07,1.18,11.58,11.58,0,0,1,4.45,3.41,14,14,0,0,1,2.54,5.16,23.92,23.92,0,0,1,.79,6.24,21.71,21.71,0,0,1-1.17,8,13.19,13.19,0,0,1-3.26,4.77,10.7,10.7,0,0,1-4.48,2.56,23,23,0,0,1-5.94.88H331.46Zm10,7.29v17.6h2.44a10.3,10.3,0,0,0,4.44-.69,4.74,4.74,0,0,0,2.06-2.42,15.1,15.1,0,0,0,.75-5.59q0-5.12-1.67-7c-1.12-1.26-3-1.89-5.54-1.89Z"/><path class="cls-1" d="M366.31,222.36H393v6.87h-16.7v5.12h15.49v6.57H376.29v6.35h17.18v7.3H366.31Z"/><path class="cls-1" d="M397.1,243.91l9.47-.59a7.12,7.12,0,0,0,1.25,3.51,5.24,5.24,0,0,0,4.39,2,4.87,4.87,0,0,0,3.29-1,3,3,0,0,0,1.15-2.32,2.94,2.94,0,0,0-1.1-2.24q-1.1-1-5.09-1.87-6.56-1.47-9.34-3.91a7.84,7.84,0,0,1-2.81-6.22,8.46,8.46,0,0,1,1.43-4.69,9.58,9.58,0,0,1,4.33-3.47,20.28,20.28,0,0,1,7.92-1.26q6.18,0,9.42,2.29c2.16,1.53,3.44,4,3.86,7.31l-9.39.55a4.38,4.38,0,0,0-4.87-4.15,4,4,0,0,0-2.62.73,2.25,2.25,0,0,0-.88,1.79,1.78,1.78,0,0,0,.73,1.39,8.15,8.15,0,0,0,3.34,1.18,42,42,0,0,1,9.35,2.85,9.78,9.78,0,0,1,4.1,3.57,9,9,0,0,1,1.29,4.77,10.23,10.23,0,0,1-1.71,5.71,10.79,10.79,0,0,1-4.79,4,19.39,19.39,0,0,1-7.76,1.35q-8.22,0-11.38-3.17A12.43,12.43,0,0,1,397.1,243.91Z"/><path class="cls-1" d="M431.73,222.36h10v32.21h-10Z"/><path class="cls-1" d="M465,242.9v-6.7h15.38v13.73a31.4,31.4,0,0,1-7.81,4.1,26.41,26.41,0,0,1-8.06,1.09,19.51,19.51,0,0,1-9.35-2,13.36,13.36,0,0,1-5.6-5.82,19.1,19.1,0,0,1-2-8.88,18.54,18.54,0,0,1,2.18-9.17,14.08,14.08,0,0,1,6.37-5.92,20.73,20.73,0,0,1,8.81-1.56,25,25,0,0,1,8,1,10.45,10.45,0,0,1,4.39,3,13.38,13.38,0,0,1,2.63,5.16l-9.6,1.71a5.18,5.18,0,0,0-2-2.79,6.28,6.28,0,0,0-3.61-1,6.52,6.52,0,0,0-5.22,2.28q-1.93,2.26-1.94,7.19,0,5.24,2,7.47a6.9,6.9,0,0,0,5.49,2.25,10.47,10.47,0,0,0,3.18-.49,16.84,16.84,0,0,0,3.47-1.65v-3Z"/><path class="cls-1" d="M486.39,222.36h9.3l12.13,17.82V222.36h9.38v32.21h-9.38l-12.07-17.69v17.69h-9.36Z"/><path class="cls-1" d="M523.79,222.36h26.68v6.87h-16.7v5.12h15.49v6.57H533.77v6.35H551v7.3H523.79Z"/><path class="cls-1" d="M556.44,222.36h14.79a17.69,17.69,0,0,1,7.06,1.18,11.43,11.43,0,0,1,4.45,3.41,13.88,13.88,0,0,1,2.55,5.16,23.92,23.92,0,0,1,.79,6.24,21.71,21.71,0,0,1-1.17,8,13.32,13.32,0,0,1-3.26,4.77,10.67,10.67,0,0,1-4.49,2.56,22.9,22.9,0,0,1-5.93.88H556.44Zm10,7.29v17.6h2.44a10.22,10.22,0,0,0,4.43-.69,4.7,4.7,0,0,0,2.07-2.42,15.1,15.1,0,0,0,.75-5.59q0-5.12-1.67-7c-1.12-1.26-3-1.89-5.54-1.89Z"/><path class="cls-1" d="M631.74,238.9l7,1.56a28.06,28.06,0,0,1-1.05,3.1,28.8,28.8,0,0,1-1.43,2.75l3.36,2.3c.41.27.94.58,1.58.95l-4.81,5.54c-.88-.47-1.79-1-2.74-1.63s-1.79-1.14-2.53-1.58a18.2,18.2,0,0,1-4.66,2.24,25.79,25.79,0,0,1-7.34,1q-6.43,0-9.58-2.68a8.25,8.25,0,0,1-3.14-6.51,8.47,8.47,0,0,1,1.84-5.19,13.84,13.84,0,0,1,6-4.15,15.71,15.71,0,0,1-2.41-3.7,8.19,8.19,0,0,1-.66-3.2,7.08,7.08,0,0,1,2.61-5.64c1.75-1.48,4.39-2.22,7.94-2.22s6.27.7,8,2.11a6.35,6.35,0,0,1,2.55,5.05,6.88,6.88,0,0,1-.78,3.17,8.1,8.1,0,0,1-1.88,2.46,43.84,43.84,0,0,1-3.93,2.81,57.36,57.36,0,0,0,4.9,4.37A20.37,20.37,0,0,0,631.74,238.9Zm-13.47,2.18a9.55,9.55,0,0,0-2.45,2.22,3.49,3.49,0,0,0-.6,1.95,3.79,3.79,0,0,0,1.38,2.86,5.21,5.21,0,0,0,3.61,1.25,10.39,10.39,0,0,0,5.38-1.87Q622.74,245.3,618.27,241.08Zm3.19-7.82a9.31,9.31,0,0,0,2.68-2.06,3.34,3.34,0,0,0,1-2.1,2.24,2.24,0,0,0-.8-1.74,3.09,3.09,0,0,0-2.17-.72,3.13,3.13,0,0,0-2.22.79,2.48,2.48,0,0,0-.86,1.87Q619,230.67,621.46,233.26Z"/><path class="cls-1" d="M661.47,222.36h14.79a17.72,17.72,0,0,1,7.06,1.18,11.43,11.43,0,0,1,4.45,3.41,14.18,14.18,0,0,1,2.55,5.16,23.92,23.92,0,0,1,.79,6.24,21.71,21.71,0,0,1-1.17,8,13.32,13.32,0,0,1-3.26,4.77,10.67,10.67,0,0,1-4.49,2.56,22.9,22.9,0,0,1-5.93.88H661.47Zm10,7.29v17.6h2.43a10.3,10.3,0,0,0,4.44-.69,4.7,4.7,0,0,0,2.07-2.42,15.1,15.1,0,0,0,.75-5.59q0-5.12-1.67-7c-1.12-1.26-3-1.89-5.54-1.89Z"/><path class="cls-1" d="M696.32,222.36H723v6.87H706.3v5.12h15.49v6.57H706.3v6.35h17.18v7.3H696.32Z"/><path class="cls-1" d="M725.68,222.36h10.4l7.25,23.18,7.16-23.18h10.1l-12,32.21H737.84Z"/><path class="cls-1" d="M763.82,222.36H790.5v6.87H773.8v5.12h15.49v6.57H773.8v6.35H791v7.3H763.82Z"/><path class="cls-1" d="M796.34,222.36h9.95v24.28h15.54v7.93H796.34Z"/><path class="cls-1" d="M824.33,238.48q0-7.87,4.4-12.28T841,221.81q8,0,12.39,4.32c2.9,2.87,4.35,6.91,4.35,12.09a19.77,19.77,0,0,1-1.9,9.26,13.6,13.6,0,0,1-5.49,5.63,18.16,18.16,0,0,1-9,2,20.57,20.57,0,0,1-9-1.74,13.56,13.56,0,0,1-5.79-5.49A18.26,18.26,0,0,1,824.33,238.48Zm10,.05q0,4.88,1.81,7a6.86,6.86,0,0,0,9.9,0q1.75-2.09,1.76-7.49c0-3-.62-5.25-1.84-6.65a6.27,6.27,0,0,0-5-2.1,6.06,6.06,0,0,0-4.83,2.14C834.89,232.9,834.29,235.25,834.29,238.53Z"/><path class="cls-1" d="M863,222.36h16.54c3.61,0,6.3.85,8.1,2.57s2.69,4.15,2.69,7.31a10,10,0,0,1-2.93,7.63c-2,1.83-4.94,2.75-9,2.75H873v11.95H863Zm10,13.73h2.44c1.92,0,3.27-.33,4-1a3.24,3.24,0,0,0,1.16-2.56,3.59,3.59,0,0,0-1-2.57c-.67-.7-1.94-1.06-3.8-1.06H873Z"/><path class="cls-1" d="M895.55,222.36h26.67v6.87h-16.7v5.12H921v6.57H905.52v6.35H922.7v7.3H895.55Z"/><path class="cls-1" d="M928.2,222.36H943a17.74,17.74,0,0,1,7.07,1.18A11.5,11.5,0,0,1,954.5,227a14.18,14.18,0,0,1,2.55,5.16,24.36,24.36,0,0,1,.79,6.24,21.47,21.47,0,0,1-1.18,8,13.19,13.19,0,0,1-3.26,4.77,10.64,10.64,0,0,1-4.48,2.56,23,23,0,0,1-5.94.88H928.2Zm9.95,7.29v17.6h2.44a10.3,10.3,0,0,0,4.44-.69,4.65,4.65,0,0,0,2.06-2.42,15.1,15.1,0,0,0,.75-5.59q0-5.12-1.67-7t-5.54-1.89Z"/></svg>